<svg width="113" height="32" viewBox="0 0 113 32" fill="none" xmlns="http://www.w3.org/2000/svg">
<g clip-path="url(#clip0_810_4681)">
<path d="M85.0747 9.28906H79.1488C78.8002 9.28906 78.4516 9.63765 78.2773 9.98623L75.8372 25.324C75.8372 25.6725 76.0115 25.8468 76.3601 25.8468H79.4974C79.846 25.8468 80.0203 25.6725 80.0203 25.324L80.7174 20.9667C80.7174 20.6181 81.066 20.2695 81.5889 20.2695H83.5061C87.5148 20.2695 89.7806 18.3523 90.3035 14.5178C90.6521 12.9492 90.3035 11.5549 89.6063 10.6834C88.5606 9.81194 86.992 9.28906 85.0747 9.28906ZM85.7719 15.0407C85.4233 17.1322 83.8547 17.1322 82.2861 17.1322H81.2403L81.9375 13.1235C81.9375 12.9492 82.1118 12.7749 82.4604 12.7749H82.8089C83.8547 12.7749 84.9005 12.7749 85.4233 13.4721C85.7719 13.6464 85.7719 14.1692 85.7719 15.0407Z" fill="#139AD6"/>
<path d="M42.3733 9.28906H36.4474C36.0988 9.28906 35.7502 9.63765 35.5759 9.98623L33.1358 25.324C33.1358 25.6725 33.3101 25.8468 33.6587 25.8468H36.4474C36.796 25.8468 37.1446 25.4983 37.3189 25.1497L38.016 20.9667C38.016 20.6181 38.3646 20.2695 38.8875 20.2695H40.8047C44.8134 20.2695 47.0792 18.3523 47.6021 14.5178C47.9507 12.9492 47.6021 11.5549 46.9049 10.6834C45.8592 9.81194 44.4648 9.28906 42.3733 9.28906ZM43.0705 15.0407C42.7219 17.1322 41.1533 17.1322 39.5847 17.1322H38.7132L39.4104 13.1235C39.4104 12.9492 39.5847 12.7749 39.9332 12.7749H40.2818C41.3276 12.7749 42.3733 12.7749 42.8962 13.4721C43.0705 13.6464 43.2448 14.1692 43.0705 15.0407ZM60.3255 14.8664H57.5368C57.3625 14.8664 57.0139 15.0407 57.0139 15.215L56.8396 16.0865L56.6653 15.7379C55.9681 14.8664 54.7481 14.5178 53.3538 14.5178C50.2165 14.5178 47.4278 16.9579 46.9049 20.2695C46.5564 22.0124 47.0792 23.581 47.9507 24.6268C48.8222 25.6725 50.0422 26.0211 51.6108 26.0211C54.2252 26.0211 55.6196 24.4525 55.6196 24.4525L55.4453 25.324C55.4453 25.6725 55.6196 25.8468 55.9681 25.8468H58.5825C58.9311 25.8468 59.2797 25.4983 59.454 25.1497L61.0226 15.3893C60.8483 15.215 60.4997 14.8664 60.3255 14.8664ZM56.3167 20.4438C55.9681 22.0124 54.7481 23.2325 53.0052 23.2325C52.1337 23.2325 51.4365 22.8839 51.088 22.5353C50.7394 22.0124 50.5651 21.3152 50.5651 20.4438C50.7394 18.8751 52.1337 17.6551 53.7023 17.6551C54.5738 17.6551 55.0967 18.0037 55.6196 18.3523C56.1424 18.8751 56.3167 19.7466 56.3167 20.4438Z" fill="#263B80"/>
<path d="M102.853 14.8666H100.064C99.8895 14.8666 99.5409 15.0409 99.5409 15.2152L99.3667 16.0867L99.1924 15.7381C98.4952 14.8666 97.2751 14.5181 95.8808 14.5181C92.7435 14.5181 89.9549 16.9582 89.432 20.2697C89.0834 22.0126 89.6063 23.5813 90.4777 24.627C91.3492 25.6728 92.5693 26.0214 94.1379 26.0214C96.7523 26.0214 98.1466 24.4527 98.1466 24.4527L97.9723 25.3242C97.9723 25.6728 98.1466 25.8471 98.4952 25.8471H101.11C101.458 25.8471 101.807 25.4985 101.981 25.1499L103.55 15.3895C103.375 15.2152 103.201 14.8666 102.853 14.8666ZM98.8438 20.444C98.4952 22.0126 97.2751 23.2327 95.5322 23.2327C94.6608 23.2327 93.9636 22.8841 93.615 22.5355C93.2664 22.0126 93.0921 21.3155 93.0921 20.444C93.2664 18.8754 94.6608 17.6553 96.2294 17.6553C97.1008 17.6553 97.6237 18.0039 98.1466 18.3525C98.8438 18.8754 99.0181 19.7468 98.8438 20.444Z" fill="#139AD6"/>
<path d="M75.4888 14.8672H72.5258C72.1772 14.8672 72.0029 15.0415 71.8286 15.2158L67.9942 21.1417L66.2513 15.5644C66.077 15.2158 65.9027 15.0415 65.3798 15.0415H62.5911C62.2425 15.0415 62.0683 15.3901 62.0683 15.7386L65.2055 24.9761L62.2425 29.1592C62.0682 29.5077 62.2425 30.0306 62.5911 30.0306H65.3798C65.7284 30.0306 65.9027 29.8563 66.077 29.682L75.6631 15.9129C76.1859 15.3901 75.8374 14.8672 75.4888 14.8672Z" fill="#263B80"/>
<path d="M106.164 9.81223L103.724 25.4985C103.724 25.8471 103.898 26.0214 104.247 26.0214H106.687C107.036 26.0214 107.384 25.6728 107.559 25.3243L109.999 9.98652C109.999 9.63793 109.824 9.46364 109.476 9.46364H106.687C106.513 9.28935 106.338 9.46364 106.164 9.81223Z" fill="#139AD6"/>
<path d="M20.238 4.06075C19.0179 2.66641 16.7521 1.96924 13.6149 1.96924H4.90026C4.37738 1.96924 3.85451 2.49212 3.68021 3.01499L0.194366 25.8473C0.194366 26.3702 0.542951 26.7188 0.891536 26.7188H6.2946L7.68894 18.1784V18.527C7.86323 18.0041 8.38611 17.4813 8.90899 17.4813H11.5234C16.5779 17.4813 20.4123 15.3898 21.6323 9.6381V9.11523C21.458 9.11523 21.458 9.11523 21.6323 9.11523C21.8066 6.84943 21.458 5.45509 20.238 4.06075Z" fill="#263B80"/>
<path d="M21.4581 9.11499V9.63787C20.238 15.5638 16.4036 17.481 11.3491 17.481H8.73475C8.21188 17.481 7.689 18.0039 7.51471 18.5268L5.77178 29.1586C5.77178 29.5072 5.94607 29.8558 6.46895 29.8558H11.0006C11.5234 29.8558 12.0463 29.5072 12.0463 28.9843V28.81L12.9178 23.407V23.0584C12.9178 22.5355 13.4406 22.1869 13.9635 22.1869H14.6607C19.018 22.1869 22.5039 20.444 23.3753 15.2152C23.7239 13.1237 23.5496 11.2065 22.5039 9.98645C22.3296 9.63787 21.981 9.28928 21.4581 9.11499Z" fill="#139AD6"/>
<path d="M20.238 8.59246C20.0637 8.59246 19.8894 8.41817 19.7151 8.41817C19.5408 8.41817 19.3665 8.41817 19.1922 8.24387C18.495 8.06958 17.7979 8.06958 16.9264 8.06958H10.129C9.9547 8.06958 9.78041 8.06958 9.60612 8.24387C9.25754 8.41817 9.08324 8.76675 9.08324 9.11534L7.6889 18.1785V18.5271C7.8632 18.0042 8.38607 17.4814 8.90895 17.4814H11.5233C16.5778 17.4814 20.4122 15.3899 21.6323 9.63821C21.6323 9.46392 21.6323 9.28963 21.8066 9.11534C21.458 8.94104 21.2837 8.76675 20.9351 8.76675C20.4122 8.59246 20.4122 8.59246 20.238 8.59246Z" fill="#232C65"/>
</g>
<defs>
<clipPath id="clip0_810_4681">
<rect width="112.056" height="31.8265" fill="white" transform="translate(0.194366 0.0866699)"/>
</clipPath>
</defs>
</svg>
